<svg xmlns="http://www.w3.org/2000/svg" version="1.1" xmlns:xlink="http://www.w3.org/1999/xlink" xmlns:svgjs="http://svgjs.dev/svgjs" width="1000" height="159" viewBox="0 0 1000 159"><g transform="matrix(1,0,0,1,-0.6060606060606233,-0.6066308414213921)"><svg viewBox="0 0 396 63" data-background-color="#1f0f53" preserveAspectRatio="xMidYMid meet" height="159" width="1000" xmlns="http://www.w3.org/2000/svg" xmlns:xlink="http://www.w3.org/1999/xlink"><g id="tight-bounds" transform="matrix(1,0,0,1,0.2400000000000091,0.24036316358206022)"><svg viewBox="0 0 395.52 62.519273672835865" height="62.519273672835865" width="395.52"><g><svg viewBox="0 0 395.52 62.519273672835865" height="62.519273672835865" width="395.52"><g><svg viewBox="0 0 508.15861749778753 80.32389683594786" height="62.519273672835865" width="395.52"><g></g><g transform="matrix(1,0,0,1,112.63861749778752,0.19981068864662888)"><svg viewBox="0 0 395.52 79.9242754586546" height="79.9242754586546" width="395.52"><g id="textblocktransform"><svg viewBox="0 0 395.52 79.9242754586546" height="79.9242754586546" width="395.52" id="textblock"><g><svg viewBox="0 0 395.52 79.9242754586546" height="79.9242754586546" width="395.52"><g transform="matrix(1,0,0,1,0,0)"><svg width="395.52" viewBox="3.25 -37.5 188.03 38" height="79.9242754586546" data-palette-color="url(#b9276cc4-ea73-4441-a720-3b3cca79bb30)"></svg></g></svg></g></svg></g></svg></g><g transform="matrix(1,0,0,1,0,0.19981068864662888)"><svg viewBox="0 0 67.69455734871909 79.9242754586546" height="79.9242754586546" width="67.69455734871909"><g><svg xmlns="http://www.w3.org/2000/svg" xmlns:xlink="http://www.w3.org/1999/xlink" version="1.1" x="0" y="0" viewBox="89.70000000000002 33.7 620.5002476291002 732.5999999999999" enable-background="new 0 0 800 800" xml:space="preserve" height="79.9242754586546" width="67.69455734871909" class="icon-icon-0" data-fill-palette-color="accent" id="icon-0"></svg></g></svg></g></svg></g></svg></g><defs></defs><mask id="b0ff3054-c928-4b48-8e5f-ed4cdaf17281"><g id="SvgjsG1203"><svg viewBox="0 0 395.52 62.519273672835865" height="62.519273672835865" width="395.52"><g><svg viewBox="0 0 395.52 62.519273672835865" height="62.519273672835865" width="395.52"><g><svg viewBox="0 0 508.15861749778753 80.32389683594786" height="62.519273672835865" width="395.52"><g><rect width="7.207653642713746" height="80.32389683594786" x="86.56276060189643" y="0" fill="white" opacity="1" stroke-width="0" stroke="transparent" fill-opacity="1" class="rect-r$-0" rx="1%" id="SvgjsRect1202" data-palette-color="url(#b9276cc4-ea73-4441-a720-3b3cca79bb30)"></rect></g><g transform="matrix(1,0,0,1,112.63861749778752,0.19981068864662888)"><svg viewBox="0 0 395.52 79.9242754586546" height="79.9242754586546" width="395.52"><g id="SvgjsG1201"><svg viewBox="0 0 395.52 79.9242754586546" height="79.9242754586546" width="395.52" id="SvgjsSvg1200"><g><svg viewBox="0 0 395.52 79.9242754586546" height="79.9242754586546" width="395.52"><g transform="matrix(1,0,0,1,0,0)"><svg width="395.52" viewBox="3.25 -37.5 188.03 38" height="79.9242754586546" data-palette-color="url(#b9276cc4-ea73-4441-a720-3b3cca79bb30)"><path d="M16.25 0L3.25 0 3.25-0.8 7.25-2.8 7.25-30.2 3.25-32.2 3.25-33 16.25-33Q22.15-33 25.73-30.85 29.3-28.7 29.3-24.05L29.3-24.05Q29.3-21.3 27.43-19.18 25.55-17.05 22.33-15.8 19.1-14.55 15.05-14.55L15.05-14.55 11.75-14.55 11.75-2.8 16.25-0.8 16.25 0ZM15.65-30.25L11.75-30.25 11.75-17.3 16-17.3Q19.95-17.3 22.2-19.07 24.45-20.85 24.45-23.65L24.45-23.65Q24.45-27.15 22.18-28.7 19.9-30.25 15.65-30.25L15.65-30.25ZM45.2 0L34.5 0 34.5-0.8 37.65-2.4 37.65-17.3 34.65-19.9 34.65-20.25 40.85-23 41.15-23 41.6-18.75 41.8-18.75Q42.95-20.6 43.92-21.53 44.9-22.45 45.75-22.73 46.6-23 47.45-23L47.45-23Q47.85-23 48.37-22.85 48.9-22.7 49.25-22.55L49.25-22.55Q49.8-22.3 50.27-21.95 50.75-21.6 50.75-21.15L50.75-21.15Q50.75-20.7 50.55-20.25L50.55-20.25 49.55-17.8 49.2-17.8 47.3-18.55Q46.75-18.8 46.22-18.85 45.7-18.9 45.2-18.9L45.2-18.9Q43.1-18.9 41.65-16.75L41.65-16.75 41.65-2.4 45.2-0.8 45.2 0ZM65.25 0.5L65.25 0.5Q61.95 0.5 59.47-1.05 57-2.6 55.62-5.25 54.25-7.9 54.25-11.25L54.25-11.25Q54.25-14.6 55.62-17.25 57-19.9 59.47-21.45 61.95-23 65.25-23L65.25-23Q68.55-23 71.02-21.45 73.5-19.9 74.87-17.25 76.25-14.6 76.25-11.25L76.25-11.25Q76.25-7.9 74.87-5.25 73.5-2.6 71.02-1.05 68.55 0.5 65.25 0.5ZM65.95-1.65L65.95-1.65Q67.95-1.65 69.25-2.9 70.55-4.15 71.15-6.13 71.75-8.1 71.75-10.25L71.75-10.25Q71.75-12.9 71.02-15.35 70.3-17.8 68.72-19.35 67.15-20.9 64.65-20.9L64.65-20.9Q62.6-20.9 61.3-19.65 60-18.4 59.37-16.45 58.75-14.5 58.75-12.3L58.75-12.3Q58.75-9.65 59.5-7.2 60.25-4.75 61.85-3.2 63.45-1.65 65.95-1.65ZM94.99 0L81.99 0 81.99-0.8 85.99-2.8 85.99-30.2 81.99-32.2 81.99-33 105.94-33 105.94-24.4 105.14-24.4 102.04-30.25 90.49-30.25 90.49-18.4 98.49-18.4 100.99-22.55 101.79-22.55 101.79-11.6 100.99-11.6 98.49-15.65 90.49-15.65 90.49-2.8 94.99-0.8 94.99 0ZM122.94 0.5L122.94 0.5Q119.64 0.5 117.17-1.05 114.69-2.6 113.32-5.25 111.94-7.9 111.94-11.25L111.94-11.25Q111.94-14.6 113.32-17.25 114.69-19.9 117.17-21.45 119.64-23 122.94-23L122.94-23Q126.24-23 128.72-21.45 131.19-19.9 132.56-17.25 133.94-14.6 133.94-11.25L133.94-11.25Q133.94-7.9 132.56-5.25 131.19-2.6 128.72-1.05 126.24 0.5 122.94 0.5ZM123.64-1.65L123.64-1.65Q125.64-1.65 126.94-2.9 128.24-4.15 128.84-6.13 129.44-8.1 129.44-10.25L129.44-10.25Q129.44-12.9 128.72-15.35 127.99-17.8 126.42-19.35 124.84-20.9 122.34-20.9L122.34-20.9Q120.29-20.9 118.99-19.65 117.69-18.4 117.07-16.45 116.44-14.5 116.44-12.3L116.44-12.3Q116.44-9.65 117.19-7.2 117.94-4.75 119.54-3.2 121.14-1.65 123.64-1.65ZM148.94 0L138.64 0 138.64-0.8 141.79-2.4 141.79-31.8 138.79-34.4 138.79-34.75 145.49-37.5 145.79-37.5 145.79-2.4 148.94-0.8 148.94 0ZM158.83-29.05L158.83-29.05Q157.53-29.05 156.69-29.93 155.83-30.8 155.83-32.05L155.83-32.05Q155.83-33.35 156.69-34.2 157.53-35.05 158.83-35.05L158.83-35.05Q160.13-35.05 160.98-34.2 161.83-33.35 161.83-32.05L161.83-32.05Q161.83-30.8 160.98-29.93 160.13-29.05 158.83-29.05ZM164.13 0L153.83 0 153.83-0.8 156.98-2.4 156.98-17.3 153.98-19.9 153.98-20.25 160.69-23 160.98-23 160.98-2.4 164.13-0.8 164.13 0ZM180.28 0.5L180.28 0.5Q176.98 0.5 174.51-1.05 172.03-2.6 170.66-5.25 169.28-7.9 169.28-11.25L169.28-11.25Q169.28-14.6 170.66-17.25 172.03-19.9 174.51-21.45 176.98-23 180.28-23L180.28-23Q183.58-23 186.06-21.45 188.53-19.9 189.91-17.25 191.28-14.6 191.28-11.25L191.28-11.25Q191.28-7.9 189.91-5.25 188.53-2.6 186.06-1.05 183.58 0.5 180.28 0.5ZM180.98-1.65L180.98-1.65Q182.98-1.65 184.28-2.9 185.58-4.15 186.18-6.13 186.78-8.1 186.78-10.25L186.78-10.25Q186.78-12.9 186.06-15.35 185.33-17.8 183.76-19.35 182.18-20.9 179.68-20.9L179.68-20.9Q177.63-20.9 176.33-19.65 175.03-18.4 174.41-16.45 173.78-14.5 173.78-12.3L173.78-12.3Q173.78-9.65 174.53-7.2 175.28-4.75 176.88-3.2 178.48-1.65 180.98-1.65Z" opacity="1" transform="matrix(1,0,0,1,0,0)" fill="white" class="wordmark-text-0" id="SvgjsPath1199"></path></svg></g></svg></g></svg></g></svg></g><g transform="matrix(1,0,0,1,0,0.19981068864662888)"><svg viewBox="0 0 67.69455734871909 79.9242754586546" height="79.9242754586546" width="67.69455734871909"><g><svg xmlns="http://www.w3.org/2000/svg" xmlns:xlink="http://www.w3.org/1999/xlink" version="1.1" x="0" y="0" viewBox="89.70000000000002 33.7 620.5002476291002 732.5999999999999" enable-background="new 0 0 800 800" xml:space="preserve" height="79.9242754586546" width="67.69455734871909" class="icon-icon-0" data-fill-palette-color="accent" id="SvgjsSvg1198"></svg></g></svg></g></svg></g></svg></g><defs><mask></mask></defs></svg></g></mask><linearGradient x1="0" x2="1" y1="0.548" y2="0.55" id="b9276cc4-ea73-4441-a720-3b3cca79bb30"><stop stop-color="#ff6cab" offset="0"></stop><stop stop-color="#7366ff" offset="1"></stop></linearGradient><rect width="395.52" height="62.519273672835865" fill="url(#b9276cc4-ea73-4441-a720-3b3cca79bb30)" mask="url(#b0ff3054-c928-4b48-8e5f-ed4cdaf17281)" data-fill-palette-color="primary"></rect><mask id="b7ce8b2e-7da0-4019-8f64-e876f4c503d4"><g id="SvgjsG1213"><svg viewBox="0 0 395.52 62.519273672835865" height="62.519273672835865" width="395.52"><g><svg viewBox="0 0 395.52 62.519273672835865" height="62.519273672835865" width="395.52"><g><svg viewBox="0 0 508.15861749778753 80.32389683594786" height="62.519273672835865" width="395.52"><g></g><g transform="matrix(1,0,0,1,112.63861749778752,0.19981068864662888)"><svg viewBox="0 0 395.52 79.9242754586546" height="79.9242754586546" width="395.52"><g id="SvgjsG1212"><svg viewBox="0 0 395.52 79.9242754586546" height="79.9242754586546" width="395.52" id="SvgjsSvg1211"><g><svg viewBox="0 0 395.52 79.9242754586546" height="79.9242754586546" width="395.52"><g transform="matrix(1,0,0,1,0,0)"><svg width="395.52" viewBox="3.25 -37.5 188.03 38" height="79.9242754586546" data-palette-color="url(#b9276cc4-ea73-4441-a720-3b3cca79bb30)"></svg></g></svg></g></svg></g></svg></g><g transform="matrix(1,0,0,1,0,0.19981068864662888)"><svg viewBox="0 0 67.69455734871909 79.9242754586546" height="79.9242754586546" width="67.69455734871909"><g><svg xmlns="http://www.w3.org/2000/svg" xmlns:xlink="http://www.w3.org/1999/xlink" version="1.1" x="0" y="0" viewBox="89.70000000000002 33.7 620.5002476291002 732.5999999999999" enable-background="new 0 0 800 800" xml:space="preserve" height="79.9242754586546" width="67.69455734871909" class="icon-icon-0" data-fill-palette-color="accent" id="SvgjsSvg1210"><g fill="white"><path d="M283.5 609.5h-11v0L283.5 609.5c14.3 0 26-11.6 26-26C309.4 597.9 297.8 609.5 283.5 609.5z" fill="white"></path><path d="M570.5 554.1H410c-18.6 0-33.8-15.1-33.8-33.8 0-18.6 15.1-33.8 33.8-33.8h160.5c18.6 0 33.8 15.1 33.8 33.8C604.2 539 589.1 554.1 570.5 554.1zM570.5 452.9H410c-18.6 0-33.8-15.1-33.8-33.8 0-18.6 15.1-33.8 33.8-33.8h160.5c18.6 0 33.8 15.1 33.8 33.8C604.2 437.8 589.1 452.9 570.5 452.9zM350.3 284.1h220.1c18.6 0 33.8 15.1 33.8 33.8 0 18.6-15.1 33.8-33.8 33.8H350.3c-18.6 0-33.8-15.1-33.8-33.8C316.6 299.2 331.7 284.1 350.3 284.1z" fill="white"></path><path d="M115.7 609.5c-7.2 0-13.7-2.9-18.4-7.6C102 606.6 108.5 609.5 115.7 609.5l8 0v0H115.7z" fill="white"></path><path d="M642.8 93.5h-82.1V67.5c0-18.6-15.1-33.8-33.8-33.8-18.6 0-33.8 15.1-33.8 33.8v25.9h-16.9-67.5-16.9V67.5c0-18.6-15.1-33.8-33.8-33.8-18.6 0-33.8 15.1-33.8 33.8v25.9h-83.5c-37.3 0-67.5 30.2-67.5 67.5v69.2c8.2-2.4 16.8-3.8 25.8-3.8 15.1 0 29.2 3.8 41.7 10.3V161h83.5v24.7c0 18.6 15.1 33.8 33.8 33.8 18.6 0 33.8-15.1 33.8-33.8V161h16.9 67.5 16.9v24.7c0 18.6 15.1 33.8 33.8 33.8 18.6 0 33.8-15.1 33.8-33.8V161h82.1v476.8H303.8v67.5h338.9c37.3 0 67.5-30.2 67.5-67.5V161C710.3 123.7 680.1 93.5 642.8 93.5z" fill="white"></path><path d="M570.5 486.6H410c-18.6 0-33.8 15.1-33.8 33.8 0 18.6 15.1 33.8 33.8 33.8h160.5c18.6 0 33.8-15.1 33.8-33.8C604.2 501.7 589.1 486.6 570.5 486.6z" fill="white"></path><path d="M570.5 385.4H410c-18.6 0-33.8 15.1-33.8 33.8 0 18.6 15.1 33.8 33.8 33.8h160.5c18.6 0 33.8-15.1 33.8-33.8C604.2 400.5 589.1 385.4 570.5 385.4z" fill="white"></path><path d="M350.3 351.6h220.1c18.6 0 33.8-15.1 33.8-33.8 0-18.6-15.1-33.8-33.8-33.8H350.3c-18.6 0-33.8 15.1-33.8 33.8C316.6 336.5 331.7 351.6 350.3 351.6z" fill="white"></path><path d="M173.4 409.3L173.4 409.3l-57.7 0c-7.2 0-13.7 2.9-18.4 7.6 4.7-4.7 11.2-7.6 18.4-7.6H173.4z" fill="white"></path><path d="M283.5 409.3c5.4 0 10.4 1.6 14.5 4.4C293.8 410.9 288.9 409.3 283.5 409.3l-42.6 0v0H283.5z" fill="white"></path><path d="M91.8 425.1c1.3-3.1 3.2-5.9 5.6-8.2C95 419.2 93.1 422 91.8 425.1z" fill="white"></path><rect x="207.2" y="375.5" width="0" height="67.5" fill="white"></rect><g fill="white"><path d="M298 413.7c-4.1-2.8-9.1-4.4-14.5-4.4h-42.6-67.5-57.7c-7.2 0-13.7 2.9-18.4 7.6-2.3 2.3-4.2 5.1-5.6 8.2-1.3 3.1-2 6.5-2 10.1v148.4c0 7.2 2.9 13.7 7.6 18.4 4.7 4.7 11.2 7.6 18.4 7.6h8v0 156.7h148.8v-61-67.5-28.2 0h11c14.3 0 26-11.6 26-26V435.2C309.4 426.3 304.9 418.4 298 413.7z" fill="white"></path><path d="M240.9 275.1c-10.7-10.7-25.4-17.3-41.7-17.3-9.3 0-18 2.2-25.8 6-19.6 9.6-33.1 29.6-33.1 52.8s13.5 43.3 33.1 52.8c7.8 3.8 16.5 6 25.8 6 16.3 0 31.1-6.6 41.7-17.3 10.6-10.6 17.1-25.3 17.1-41.5C258 300.4 251.5 285.8 240.9 275.1z" fill="white"></path></g></g></svg></g></svg></g></svg></g></svg></g><defs><mask></mask></defs><mask><g id="SvgjsG1209"><svg viewBox="0 0 395.52 62.519273672835865" height="62.519273672835865" width="395.52"><g><svg viewBox="0 0 395.52 62.519273672835865" height="62.519273672835865" width="395.52"><g><svg viewBox="0 0 508.15861749778753 80.32389683594786" height="62.519273672835865" width="395.52"><g></g><g transform="matrix(1,0,0,1,112.63861749778752,0.19981068864662888)"><svg viewBox="0 0 395.52 79.9242754586546" height="79.9242754586546" width="395.52"><g id="SvgjsG1207"><svg viewBox="0 0 395.52 79.9242754586546" height="79.9242754586546" width="395.52" id="SvgjsSvg1206"><g><svg viewBox="0 0 395.52 79.9242754586546" height="79.9242754586546" width="395.52"><g transform="matrix(1,0,0,1,0,0)"><svg width="395.52" viewBox="3.25 -37.5 188.03 38" height="79.9242754586546" data-palette-color="url(#b9276cc4-ea73-4441-a720-3b3cca79bb30)"></svg></g></svg></g></svg></g></svg></g><g transform="matrix(1,0,0,1,0,0.19981068864662888)"><svg viewBox="0 0 67.69455734871909 79.9242754586546" height="79.9242754586546" width="67.69455734871909"><g><svg xmlns="http://www.w3.org/2000/svg" xmlns:xlink="http://www.w3.org/1999/xlink" version="1.1" x="0" y="0" viewBox="89.70000000000002 33.7 620.5002476291002 732.5999999999999" enable-background="new 0 0 800 800" xml:space="preserve" height="79.9242754586546" width="67.69455734871909" class="icon-icon-0" data-fill-palette-color="accent" id="SvgjsSvg1204"></svg></g></svg></g></svg></g></svg></g><defs><mask></mask></defs></svg></g></mask></svg></g></mask><linearGradient x1="0" x2="1" y1="0.548" y2="0.55" id="054e5ab5-7979-47cd-98f1-df7e75c36cee"><stop stop-color="#ff6cab" offset="0"></stop><stop stop-color="#7366ff" offset="1"></stop></linearGradient><rect width="395.52" height="62.519273672835865" fill="url(#054e5ab5-7979-47cd-98f1-df7e75c36cee)" mask="url(#b7ce8b2e-7da0-4019-8f64-e876f4c503d4)" data-fill-palette-color="accent"></rect></svg><rect width="395.52" height="62.519273672835865" fill="none" stroke="none" visibility="hidden"></rect></g></svg></g></svg>